<svg width="46" height="48" viewBox="0 0 46 48" fill="none" xmlns="http://www.w3.org/2000/svg">
<path d="M17.25 32.5834C15.9083 32.5834 14.7743 32.1061 13.8479 31.1517C12.9215 30.1972 12.4583 29.0288 12.4583 27.6465C12.4583 26.2642 12.9215 25.0958 13.8479 24.1413C14.7743 23.1869 15.9083 22.7096 17.25 22.7096C18.5917 22.7096 19.7257 23.1869 20.6521 24.1413C21.5785 25.0958 22.0417 26.2642 22.0417 27.6465C22.0417 29.0288 21.5785 30.1972 20.6521 31.1517C19.7257 32.1061 18.5917 32.5834 17.25 32.5834ZM9.58333 43.4445C8.52917 43.4445 7.62674 43.0578 6.87604 42.2843C6.12535 41.5109 5.75 40.5811 5.75 39.495V11.8485C5.75 10.7624 6.12535 9.83263 6.87604 9.05918C7.62674 8.28574 8.52917 7.89902 9.58333 7.89902H11.5V3.94952H15.3333V7.89902H30.6667V3.94952H34.5V7.89902H36.4167C37.4708 7.89902 38.3733 8.28574 39.124 9.05918C39.8747 9.83263 40.25 10.7624 40.25 11.8485V39.495C40.25 40.5811 39.8747 41.5109 39.124 42.2843C38.3733 43.0578 37.4708 43.4445 36.4167 43.4445H9.58333ZM9.58333 39.495H36.4167V19.7475H9.58333V39.495Z" fill="#A92E20"/>
</svg>
