<svg width="58" height="58" viewBox="0 0 58 58" fill="none" xmlns="http://www.w3.org/2000/svg">
<path d="M28.5584 28.5583C29.8673 28.5583 30.9878 28.0922 31.9199 27.1601C32.8521 26.228 33.3181 25.1075 33.3181 23.7986C33.3181 22.4896 32.8521 21.3691 31.9199 20.437C30.9878 19.5049 29.8673 19.0389 28.5584 19.0389C27.2495 19.0389 26.129 19.5049 25.1968 20.437C24.2647 21.3691 23.7987 22.4896 23.7987 23.7986C23.7987 25.1075 24.2647 26.228 25.1968 27.1601C26.129 28.0922 27.2495 28.5583 28.5584 28.5583ZM28.5584 52.3569C22.1724 46.9229 17.4028 41.8756 14.2495 37.215C11.0962 32.5545 9.51953 28.241 9.51953 24.2745C9.51953 18.3249 11.4333 13.585 15.2609 10.0549C19.0885 6.52477 23.521 4.7597 28.5584 4.7597C33.5958 4.7597 38.0282 6.52477 41.8559 10.0549C45.6835 13.585 47.5973 18.3249 47.5973 24.2745C47.5973 28.241 46.0206 32.5545 42.8673 37.215C39.714 41.8756 34.9443 46.9229 28.5584 52.3569Z" fill="#A92E20"/>
</svg>
