<svg width="40" height="40" viewBox="0 0 40 40" fill="none" xmlns="http://www.w3.org/2000/svg">
<path d="M6.66659 33.3334C5.74992 33.3334 4.95825 33.0139 4.29159 32.375C3.6527 31.7084 3.33325 30.9167 3.33325 30V10C3.33325 9.08335 3.6527 8.30558 4.29159 7.66669C4.95825 7.00002 5.74992 6.66669 6.66659 6.66669H33.3333C34.2499 6.66669 35.0277 7.00002 35.6666 7.66669C36.3333 8.30558 36.6666 9.08335 36.6666 10V30C36.6666 30.9167 36.3333 31.7084 35.6666 32.375C35.0277 33.0139 34.2499 33.3334 33.3333 33.3334H6.66659ZM19.9999 21.6667L33.3333 13.3334V10L19.9999 18.3334L6.66659 10V13.3334L19.9999 21.6667Z" fill="#A92E20"/>
</svg>
