<svg width="56" height="56" viewBox="0 0 56 56" fill="none" xmlns="http://www.w3.org/2000/svg">
<path d="M32.6666 4.66675H13.9999C12.7622 4.66675 11.5753 5.15841 10.7001 6.03358C9.82492 6.90875 9.33325 8.09574 9.33325 9.33342V46.6668C9.33325 47.9044 9.82492 49.0914 10.7001 49.9666C11.5753 50.8418 12.7622 51.3334 13.9999 51.3334H41.9999C43.2376 51.3334 44.4246 50.8418 45.2997 49.9666C46.1749 49.0914 46.6666 47.9044 46.6666 46.6668V18.6667M32.6666 4.66675L46.6666 18.6667M32.6666 4.66675V18.6667H46.6666M37.3333 30.3334H18.6666M37.3333 39.6668H18.6666M23.3333 21.0001H18.6666" stroke="#BE3323" stroke-width="5" stroke-linecap="round" stroke-linejoin="round"/>
</svg>
