<svg width="70" height="70" viewBox="0 0 70 70" fill="none" xmlns="http://www.w3.org/2000/svg">
<path d="M0 52.5V47.9063C0 45.816 1.06944 44.1146 3.20833 42.8021C5.34722 41.4896 8.16667 40.8333 11.6667 40.8333C12.2986 40.8333 12.9063 40.8455 13.4896 40.8698C14.0729 40.8941 14.6319 40.9549 15.1667 41.0521C14.4861 42.0729 13.9757 43.1424 13.6354 44.2604C13.2951 45.3785 13.125 46.5451 13.125 47.7604V52.5H0ZM17.5 52.5V47.7604C17.5 46.2049 17.9253 44.783 18.776 43.4948C19.6267 42.2066 20.8299 41.0764 22.3854 40.1042C23.941 39.1319 25.8003 38.4028 27.9635 37.9167C30.1267 37.4306 32.4722 37.1875 35 37.1875C37.5764 37.1875 39.9462 37.4306 42.1094 37.9167C44.2726 38.4028 46.1319 39.1319 47.6875 40.1042C49.2431 41.0764 50.434 42.2066 51.2604 43.4948C52.0868 44.783 52.5 46.2049 52.5 47.7604V52.5H17.5ZM56.875 52.5V47.7604C56.875 46.4965 56.717 45.3056 56.401 44.1875C56.0851 43.0694 55.6111 42.0243 54.9792 41.0521C55.5139 40.9549 56.0608 40.8941 56.6198 40.8698C57.1788 40.8455 57.75 40.8333 58.3333 40.8333C61.8333 40.8333 64.6528 41.4774 66.7917 42.7656C68.9306 44.0538 70 45.7674 70 47.9063V52.5H56.875ZM23.6979 46.6667H46.375C45.8889 45.6944 44.5399 44.8438 42.3281 44.1146C40.1163 43.3854 37.6736 43.0208 35 43.0208C32.3264 43.0208 29.8837 43.3854 27.6719 44.1146C25.4601 44.8438 24.1354 45.6944 23.6979 46.6667ZM11.6667 37.9167C10.0625 37.9167 8.68924 37.3455 7.54688 36.2031C6.40451 35.0608 5.83333 33.6875 5.83333 32.0833C5.83333 30.4306 6.40451 29.0451 7.54688 27.9271C8.68924 26.809 10.0625 26.25 11.6667 26.25C13.3194 26.25 14.7049 26.809 15.8229 27.9271C16.941 29.0451 17.5 30.4306 17.5 32.0833C17.5 33.6875 16.941 35.0608 15.8229 36.2031C14.7049 37.3455 13.3194 37.9167 11.6667 37.9167ZM58.3333 37.9167C56.7292 37.9167 55.3559 37.3455 54.2135 36.2031C53.0712 35.0608 52.5 33.6875 52.5 32.0833C52.5 30.4306 53.0712 29.0451 54.2135 27.9271C55.3559 26.809 56.7292 26.25 58.3333 26.25C59.9861 26.25 61.3715 26.809 62.4896 27.9271C63.6076 29.0451 64.1667 30.4306 64.1667 32.0833C64.1667 33.6875 63.6076 35.0608 62.4896 36.2031C61.3715 37.3455 59.9861 37.9167 58.3333 37.9167ZM35 35C32.5694 35 30.5035 34.1493 28.8021 32.4479C27.1007 30.7465 26.25 28.6806 26.25 26.25C26.25 23.7708 27.1007 21.6927 28.8021 20.0156C30.5035 18.3385 32.5694 17.5 35 17.5C37.4792 17.5 39.5573 18.3385 41.2344 20.0156C42.9115 21.6927 43.75 23.7708 43.75 26.25C43.75 28.6806 42.9115 30.7465 41.2344 32.4479C39.5573 34.1493 37.4792 35 35 35ZM35 29.1667C35.8264 29.1667 36.5191 28.8872 37.0781 28.3281C37.6372 27.7691 37.9167 27.0764 37.9167 26.25C37.9167 25.4236 37.6372 24.7309 37.0781 24.1719C36.5191 23.6128 35.8264 23.3333 35 23.3333C34.1736 23.3333 33.4809 23.6128 32.9219 24.1719C32.3628 24.7309 32.0833 25.4236 32.0833 26.25C32.0833 27.0764 32.3628 27.7691 32.9219 28.3281C33.4809 28.8872 34.1736 29.1667 35 29.1667Z" fill="#961F12"/>
</svg>
