<svg width="72" height="72" viewBox="0 0 72 72" fill="none" xmlns="http://www.w3.org/2000/svg">
<path d="M12 57V51H18V30C18 25.85 19.25 22.175 21.75 18.975C24.25 15.725 27.5 13.6 31.5 12.6V10.5C31.5 9.25 31.925 8.2 32.775 7.35C33.675 6.45 34.75 6 36 6C37.25 6 38.3 6.45 39.15 7.35C40.05 8.2 40.5 9.25 40.5 10.5V12.6C44.5 13.6 47.75 15.725 50.25 18.975C52.75 22.175 54 25.85 54 30V51H60V57H12ZM36 66C34.35 66 32.925 65.425 31.725 64.275C30.575 63.075 30 61.65 30 60H42C42 61.65 41.4 63.075 40.2 64.275C39.05 65.425 37.65 66 36 66ZM24 51H48V30C48 26.7 46.825 23.875 44.475 21.525C42.125 19.175 39.3 18 36 18C32.7 18 29.875 19.175 27.525 21.525C25.175 23.875 24 26.7 24 30V51Z" fill="#D14334"/>
</svg>
