<svg width="66" height="66" viewBox="0 0 66 66" fill="none" xmlns="http://www.w3.org/2000/svg">
<path d="M11 55C9.4875 55 8.18125 54.4729 7.08125 53.4188C6.02708 52.3188 5.5 51.0125 5.5 49.5V16.5C5.5 14.9875 6.02708 13.7042 7.08125 12.65C8.18125 11.55 9.4875 11 11 11H44C45.5125 11 46.7958 11.55 47.85 12.65C48.95 13.7042 49.5 14.9875 49.5 16.5V28.875L60.5 17.875V48.125L49.5 37.125V49.5C49.5 51.0125 48.95 52.3188 47.85 53.4188C46.7958 54.4729 45.5125 55 44 55H11ZM11 49.5H44V16.5H11V49.5ZM11 49.5V16.5V49.5Z" fill="#DE5141"/>
</svg>
